<svg xmlns="http://www.w3.org/2000/svg" width="22" height="26" viewBox="0 0 22 26"><g transform="translate(-1725 -33)"><g transform="translate(1725 33)" fill="#2a2555" stroke="#aca2ff" stroke-width="1"><rect width="14" height="26" stroke="none"/><rect x="0.5" y="0.5" width="13" height="25" fill="none"/></g><g transform="translate(1729 51)" fill="#2a2555" stroke="#aca2ff" stroke-width="1"><rect width="6" height="8" stroke="none"/><rect x="0.5" y="0.5" width="5" height="7" fill="none"/></g><g transform="translate(1735 39) rotate(90)" fill="#2a2555" stroke="#aca2ff" stroke-linecap="round" stroke-width="1"><rect width="1" height="2" rx="0.5" stroke="none"/><rect x="0.5" y="0.5" height="1" fill="none"/></g><g transform="translate(1735 44) rotate(90)" fill="#2a2555" stroke="#aca2ff" stroke-linecap="round" stroke-width="1"><rect width="1" height="2" rx="0.5" stroke="none"/><rect x="0.5" y="0.5" height="1" fill="none"/></g><g transform="translate(1731 39) rotate(90)" fill="#2a2555" stroke="#aca2ff" stroke-linecap="round" stroke-width="1"><rect width="1" height="2" rx="0.5" stroke="none"/><rect x="0.5" y="0.5" height="1" fill="none"/></g><g transform="translate(1731 44) rotate(90)" fill="#2a2555" stroke="#aca2ff" stroke-linecap="round" stroke-width="1"><rect width="1" height="2" rx="0.5" stroke="none"/><rect x="0.5" y="0.5" height="1" fill="none"/></g><g transform="translate(1738 45)" fill="#2a2555" stroke="#aca2ff" stroke-width="1"><rect width="9" height="14" stroke="none"/><rect x="0.5" y="0.5" width="8" height="13" fill="none"/></g></g></svg>