<svg xmlns="http://www.w3.org/2000/svg" width="20.074" height="27.872" viewBox="0 0 20.074 27.872"><g transform="translate(-38.366 -23.265)"><g transform="translate(38.866 27.514)"><path d="M57.44,46.109H38.366l.724-1.5a16.854,16.854,0,0,0,1.636-8.594l-.084-1.041A7.261,7.261,0,0,1,47.9,27.722h.009a7.26,7.26,0,0,1,7.256,7.256L55.071,36.2A16.836,16.836,0,0,0,57.44,46.109Z" transform="translate(-38.366 -27.722)" fill="none" stroke="#fff" stroke-linecap="round" stroke-linejoin="round" stroke-width="1"/><path d="M52.81,47.131c0,2.622-1.695,4.737-3.8,4.737s-3.784-2.115-3.784-4.737Z" transform="translate(-39.547 -28.744)" fill="none" stroke="#fff" stroke-linecap="round" stroke-linejoin="round" stroke-width="1"/></g><path d="M.35,4.21h0a2.842,2.842,0,1,1,5-.038,7.224,7.224,0,0,0-2.444-.423H2.9A7.219,7.219,0,0,0,.351,4.21Z" transform="translate(45.497 23.765)" fill="rgba(0,0,0,0)" stroke="#fff" stroke-linecap="round" stroke-linejoin="round" stroke-width="1"/></g></svg>