<svg xmlns="http://www.w3.org/2000/svg" width="24.303" height="26" viewBox="0 0 24.303 26"><g transform="translate(-1325.053 -30)"><g transform="translate(1325.026 30)" fill="none"><path d="M10.974,26a2,2,0,0,1-2-2V22.543a9.983,9.983,0,0,1-3.483-1.928l-1.213.7a2,2,0,0,1-2.732-.732L.3,18.418a2,2,0,0,1,.733-2.732l1.15-.664a10.1,10.1,0,0,1,0-4.042l-1.15-.664A2,2,0,0,1,.3,7.582l1.25-2.164a2,2,0,0,1,2.732-.733l1.213.7A9.984,9.984,0,0,1,8.974,3.458V2a2,2,0,0,1,2-2h2a2,2,0,0,1,2,2V3.458a9.987,9.987,0,0,1,3.646,2.07l1.459-.843a2,2,0,0,1,2.732.733l1.25,2.164a2,2,0,0,1-.732,2.732l-1.519.877a10.1,10.1,0,0,1,0,3.616l1.519.877a2,2,0,0,1,.732,2.732l-1.25,2.165a2,2,0,0,1-2.732.732l-1.46-.843a9.986,9.986,0,0,1-3.646,2.07V24a2,2,0,0,1-2,2Z" stroke="none"/><path d="M 12.97439956665039 25.00010108947754 C 13.52569007873535 25.00010108947754 13.97419929504395 24.55158996582031 13.97419929504395 24.00030136108398 L 13.97419929504395 21.80834007263184 L 14.67451953887939 21.58835983276367 C 15.8925199508667 21.20577049255371 16.99639892578125 20.57888031005859 17.95549011230469 19.72512054443359 L 18.49493026733398 19.24492073059082 L 20.58007049560547 20.44877052307129 C 20.73455047607422 20.53800010681152 20.90222930908203 20.58325004577637 21.07843971252441 20.5832405090332 C 21.43552017211914 20.58322143554688 21.76808929443359 20.39148139953613 21.94626045227051 20.08303070068359 L 23.19647026062012 17.91743087768555 C 23.4721794128418 17.44011116027832 23.30785942077637 16.82710075378418 22.83071899414062 16.55124092102051 L 20.70088005065918 15.32163047790527 L 20.82753944396973 14.62828063964844 C 20.92498970031738 14.09484100341797 20.97439956665039 13.5468807220459 20.97439956665039 12.99960041046143 C 20.97439956665039 12.45273017883301 20.92502021789551 11.90502071380615 20.82762908935547 11.37168025970459 L 20.70104026794434 10.67838096618652 L 22.83017921447754 9.449180603027344 C 23.30785942077637 9.173000335693359 23.4721794128418 8.559990882873535 23.19644927978516 8.082630157470703 L 21.94636917114258 5.91817045211792 C 21.76784896850586 5.609090328216553 21.43498992919922 5.41709041595459 21.07770919799805 5.41709041595459 C 20.90171051025391 5.41709041595459 20.73427963256836 5.462250709533691 20.57989883422852 5.55142068862915 L 18.49501991271973 6.755130767822266 L 17.95557975769043 6.274960517883301 C 16.99642944335938 5.421200752258301 15.8925199508667 4.794310569763184 14.67453002929688 4.411730766296387 L 13.97419929504395 4.191750526428223 L 13.97419929504395 1.999800562858582 C 13.97419929504395 1.448510527610779 13.52569007873535 1.000000596046448 12.97439956665039 1.000000596046448 L 10.97369956970215 1.000000596046448 C 10.4224100112915 1.000000596046448 9.973899841308594 1.448510527610779 9.973899841308594 1.999800562858582 L 9.973899841308594 4.191580772399902 L 9.273599624633789 4.41157054901123 C 8.119549751281738 4.774110317230225 7.065069675445557 5.357930660247803 6.139469623565674 6.146830558776855 L 5.602189540863037 6.604760646820068 L 3.777519702911377 5.551320552825928 C 3.623319864273071 5.462250709533691 3.455889701843262 5.41709041595459 3.279889822006226 5.41709041595459 C 2.922599792480469 5.41709041595459 2.589749813079834 5.609090328216553 2.411249876022339 5.918130397796631 L 1.161479711532593 8.082060813903809 C 0.8859297633171082 8.559890747070312 1.050329804420471 9.173090934753418 1.527799725532532 9.448880195617676 L 3.302589654922485 10.47355079650879 L 3.157579660415649 11.18004035949707 C 3.03555965423584 11.77445030212402 2.973699808120728 12.38664054870605 2.973699808120728 12.99960041046143 C 2.973699808120728 13.61265087127686 3.035609722137451 14.22512054443359 3.157699823379517 14.8200101852417 L 3.30269980430603 15.52648067474365 L 1.527969717979431 16.5511302947998 C 1.050329804420471 16.82701110839844 0.8859297633171082 17.44021034240723 1.161239743232727 17.91763114929199 L 2.411229848861694 20.08283042907715 C 2.589529752731323 20.39152145385742 2.922059774398804 20.58326148986816 3.279059648513794 20.5832405090332 C 3.455369710922241 20.58323097229004 3.623069763183594 20.53799057006836 3.777719736099243 20.44865989685059 L 5.602279663085938 19.39529991149902 L 6.139559745788574 19.85325050354004 C 7.065099716186523 20.64215087890625 8.119549751281738 21.22597122192383 9.27361011505127 21.58852005004883 L 9.973899841308594 21.80850982666016 L 9.973899841308594 24.00030136108398 C 9.973899841308594 24.55158996582031 10.4224100112915 25.00010108947754 10.97369956970215 25.00010108947754 L 12.97439956665039 25.00010108947754 M 12.97439956665039 26.00010108947754 L 10.97369956970215 26.00010108947754 C 9.869400024414062 26.00010108947754 8.973899841308594 25.10460090637207 8.973899841308594 24.00030136108398 L 8.973899841308594 22.54255104064941 C 7.679859638214111 22.13603019714355 6.498879909515381 21.47348976135254 5.490869998931885 20.61431121826172 L 4.277699947357178 21.31470108032227 C 3.320999145507812 21.8672981262207 2.097899675369263 21.53969955444336 1.545299768447876 20.58300018310547 L 0.2951997518539429 18.41760063171387 C -0.256500244140625 17.46090126037598 0.07109976559877396 16.23780059814453 1.027799725532532 15.68520069122314 L 2.178119659423828 15.02106094360352 C 2.044139862060547 14.36826038360596 1.973699808120728 13.69204044342041 1.973699808120728 12.99960041046143 C 1.973699808120728 12.30728054046631 2.04401969909668 11.63169097900391 2.17799973487854 10.97897052764893 L 1.027799725532532 10.31490039825439 C 0.07109976559877396 9.762300491333008 -0.256500244140625 8.539200782775879 0.2951997518539429 7.582500457763672 L 1.545299768447876 5.4180006980896 C 2.097899913787842 4.461299896240234 3.321000099182129 4.132801055908203 4.277699947357178 4.685400485992432 L 5.490799903869629 5.385760307312012 C 6.498819828033447 4.526620388031006 7.679859638214111 3.864050626754761 8.973899841308594 3.457540512084961 L 8.973899841308594 1.999800562858582 C 8.973899841308594 0.8955005407333374 9.869400024414062 5.447387820822769e-07 10.97369956970215 5.447387820822769e-07 L 12.97439956665039 5.447387820822769e-07 C 14.07870006561279 5.447387820822769e-07 14.97419929504395 0.8955005407333374 14.97419929504395 1.999800562858582 L 14.97419929504395 3.457690477371216 C 16.33894920349121 3.886370658874512 17.57746887207031 4.599620342254639 18.62046051025391 5.528010368347168 L 20.07989883422852 4.685400485992432 C 21.03659820556641 4.132801532745361 22.25969886779785 4.461300373077393 22.81229972839355 5.4180006980896 L 24.06239891052246 7.582500457763672 C 24.61499977111816 8.539200782775879 24.2864990234375 9.762300491333008 23.3306999206543 10.31490039825439 L 21.81136894226074 11.19205093383789 C 21.91841888427734 11.7783203125 21.97439956665039 12.3824405670166 21.97439956665039 12.99960041046143 C 21.97439956665039 13.61720085144043 21.91843032836914 14.22134017944336 21.81126022338867 14.80799007415771 L 23.3306999206543 15.68520069122314 C 24.2864990234375 16.23780059814453 24.61499977111816 17.46090126037598 24.06239891052246 18.41760063171387 L 22.81229972839355 20.58300018310547 C 22.25970077514648 21.53970146179199 21.03660202026367 21.86730194091797 20.07989883422852 21.31470108032227 L 18.62038993835449 20.47204971313477 C 17.57740020751953 21.4005012512207 16.33894920349121 22.11371040344238 14.97419929504395 22.54240036010742 L 14.97419929504395 24.00030136108398 C 14.97419929504395 25.10460090637207 14.07870006561279 26.00010108947754 12.97439956665039 26.00010108947754 Z" stroke="none" fill="#fff"/></g><g transform="translate(1332 38)" fill="none" stroke="#fff" stroke-width="1"><circle cx="5" cy="5" r="5" stroke="none"/><circle cx="5" cy="5" r="4.5" fill="none"/></g></g></svg>